<svg width="129" height="30" viewBox="0 0 129 30" fill="none" xmlns="http://www.w3.org/2000/svg">
<path fill-rule="evenodd" clip-rule="evenodd" d="M13.291 10.6617H18.5037C18.7322 10.6617 18.9201 10.8495 18.9201 11.0781C18.9201 11.3066 18.7322 11.4919 18.5037 11.4919H13.291C13.0625 11.4919 12.8771 11.3066 12.8771 11.0781C12.8771 10.8495 13.0625 10.6617 13.291 10.6617ZM10.7976 17.9158H18.5037C18.7322 17.9158 18.9201 18.1036 18.9201 18.3322C18.9201 18.5607 18.7322 18.7486 18.5037 18.7486H10.7976C10.5691 18.7486 10.3812 18.5607 10.3812 18.3322C10.3812 18.1036 10.5691 17.9158 10.7976 17.9158ZM10.7976 15.59H18.5037C18.7322 15.59 18.9201 15.7779 18.9201 16.0064C18.9201 16.2349 18.7322 16.4228 18.5037 16.4228H10.7976C10.5691 16.4228 10.3812 16.2349 10.3812 16.0064C10.3812 15.7779 10.5691 15.59 10.7976 15.59ZM10.7976 13.2642H18.5037C18.7322 13.2642 18.9201 13.4521 18.9201 13.6806C18.9201 13.9091 18.7322 14.0945 18.5037 14.0945H10.7976C10.5691 14.0945 10.3812 13.9091 10.3812 13.6806C10.3812 13.4521 10.5691 13.2642 10.7976 13.2642Z" fill="#727376"/>
<mask id="mask0_14_87" style="mask-type:luminance" maskUnits="userSpaceOnUse" x="1" y="2" width="23" height="28">
<path d="M1.94897 2.62552H23.5919V29.0699H1.94897V2.62552Z" fill="white"/>
</mask>
<g mask="url(#mask0_14_87)">
<path fill-rule="evenodd" clip-rule="evenodd" d="M1.96421 2.64075H8.05796C8.06812 2.64075 8.07319 2.64836 8.07319 2.65598V6.42395C8.07319 6.43157 8.08081 6.43918 8.08843 6.43918H23.0029C23.013 6.43918 23.0181 6.4468 23.0181 6.45442V24.2177C23.0181 24.2253 23.013 24.2329 23.0029 24.2329H18.0695C18.0619 24.2329 18.0568 24.2406 18.0568 24.2482V29.0546C18.0568 29.0622 18.0492 29.0699 18.0416 29.0699H15.7589C15.7513 29.0699 15.7437 29.0622 15.7437 29.0546V21.9402C15.7437 21.93 15.7513 21.9249 15.7589 21.9249H20.6923C20.7025 21.9249 20.7076 21.9173 20.7076 21.9097V8.76243C20.7076 8.75481 20.7025 8.74719 20.6923 8.74719H8.08843C8.08081 8.74719 8.07319 8.75481 8.07319 8.76243C8.07319 14.7648 8.06812 20.7519 8.06812 26.7466C8.06812 26.7542 8.07319 26.7593 8.08335 26.7593H11.572V21.9402H13.8699V29.0699H5.74487C5.74233 29.0699 5.73726 29.0673 5.73472 29.0648C5.73218 29.0622 5.72964 29.0572 5.72964 29.0546C5.74487 22.3261 5.76265 15.5468 5.76265 8.76243C5.76265 8.75481 5.75503 8.74719 5.74741 8.74719H1.96421C1.95659 8.74719 1.94897 8.74211 1.94897 8.73196V2.65598C1.94897 2.64836 1.95659 2.64075 1.96421 2.64075ZM4.27476 4.94875H5.74741C5.75503 4.94875 5.76265 4.95637 5.76265 4.96399V6.42395C5.76265 6.43157 5.75503 6.43918 5.74741 6.43918H4.27476C4.26714 6.43918 4.25952 6.43157 4.25952 6.42395V4.96399C4.25952 4.95637 4.26714 4.94875 4.27476 4.94875Z" fill="#F58634"/>
</g>
<mask id="mask1_14_87" style="mask-type:luminance" maskUnits="userSpaceOnUse" x="9" y="2" width="19" height="21">
<path d="M9.29193 2.62552H27.0933V22.9786H9.29193V2.62552Z" fill="white"/>
</mask>
<g mask="url(#mask1_14_87)">
<path fill-rule="evenodd" clip-rule="evenodd" d="M9.84796 2.62552C9.84796 2.63314 9.85558 2.64075 9.8632 2.64075H27.078C27.0857 2.64075 27.0907 2.64837 27.0907 2.65345V22.4429C27.0907 22.4505 27.0857 22.4581 27.078 22.4581H24.765C24.765 17.3064 24.7802 10.1234 24.7802 4.964C24.7802 4.93607 10.922 4.94876 9.8632 4.94876C9.85304 4.94876 9.84796 4.95638 9.84796 4.964V2.62552Z" fill="#F58634"/>
</g>
<path d="M32.9418 27.0351V2.23358H37.8777V11.1H40.2136V2.23358H45.1597V27.0351H40.2136V15.7719H37.8777V27.0351H32.9418Z" fill="#727376"/>
<path d="M52.2643 27.2688C50.6241 27.2688 49.5018 26.7254 48.8924 25.6336C48.2881 24.5443 47.9885 22.9904 47.9885 20.9719C47.9885 19.3139 48.2043 18.0443 48.6385 17.1633C49.0702 16.2772 49.6694 15.6272 50.4362 15.2133C51.2081 14.802 52.3811 14.3449 53.9604 13.8422L55.3518 13.375V11.2117C55.3518 10.6582 55.2401 10.2316 55.0167 9.93204C54.7932 9.62735 54.5292 9.47501 54.2245 9.47501C53.9528 9.47501 53.7167 9.60196 53.5135 9.85079C53.3104 10.1022 53.2088 10.4398 53.2088 10.8664V12.1359H48.3034V11.4453C48.3034 9.36837 48.7858 7.88555 49.7557 6.99688C50.7307 6.11075 52.3151 5.66641 54.5088 5.66641C56.2608 5.66641 57.6877 6.12344 58.7846 7.03751C59.8815 7.95157 60.4299 9.24903 60.4299 10.9273V27.0352H55.4127V24.5266C55.1614 25.3949 54.7627 26.0678 54.2143 26.5477C53.6659 27.0301 53.0159 27.2688 52.2643 27.2688ZM54.2549 23.3383C54.6409 23.3383 54.9151 23.1809 55.0776 22.8609C55.2401 22.5436 55.3213 22.1551 55.3213 21.693V15.8023C54.5698 16.0943 54.0137 16.46 53.6557 16.8992C53.3028 17.341 53.1276 17.9555 53.1276 18.7477V21.4594C53.1276 22.7137 53.5034 23.3383 54.2549 23.3383Z" fill="#727376"/>
<path d="M69.3576 27.2687C67.3111 27.2687 65.7953 26.6949 64.8076 25.5422C63.8173 24.3844 63.3248 22.668 63.3248 20.393V2.23358H68.1388V20.1898C68.1388 20.982 68.215 21.6016 68.3724 22.0484C68.5273 22.4902 68.8548 22.7086 69.3576 22.7086C69.8578 22.7086 70.1828 22.4928 70.3326 22.0586C70.4875 21.6269 70.5662 21.0023 70.5662 20.1898V2.23358H75.3904V20.393C75.3904 22.668 74.8927 24.3844 73.8974 25.5422C72.9072 26.6949 71.3939 27.2687 69.3576 27.2687Z" fill="#727376"/>
<path d="M78.2184 27.0351V2.23358H83.0121V27.0351H78.2184Z" fill="#727376"/>
<path d="M86.1622 2.23358H93.0075C94.7747 2.23358 96.1001 2.72616 96.9888 3.70624C97.8749 4.68885 98.3294 6.1412 98.3497 8.06327L98.4005 19.6719C98.4208 22.117 97.9968 23.9553 97.131 25.1867C96.2626 26.4207 94.8306 27.0351 92.8349 27.0351H86.1622V2.23358ZM92.0224 22.6476C92.9288 22.6476 93.3833 22.2058 93.3833 21.3172V8.53046C93.3833 7.96932 93.3376 7.55038 93.2513 7.27108C93.1624 6.99432 93.0025 6.80897 92.774 6.71249C92.5429 6.61092 92.1874 6.56014 91.7075 6.56014H91.1591V22.6476H92.0224Z" fill="#727376"/>
<path d="M107.475 27.2688C105.469 27.2688 103.946 26.6594 102.904 25.4406C101.869 24.2168 101.351 22.4953 101.351 20.2813V8.46953C101.351 6.33164 101.869 4.71934 102.904 3.63516C103.946 2.5459 105.469 2 107.475 2C109.478 2 110.999 2.5459 112.035 3.63516C113.076 4.71934 113.599 6.33164 113.599 8.46953V20.2813C113.599 22.5156 113.076 24.2397 112.035 25.4508C110.999 26.6645 109.478 27.2688 107.475 27.2688ZM107.475 22.7086C107.914 22.7086 108.211 22.5156 108.369 22.1297C108.523 21.7438 108.602 21.2029 108.602 20.5047V8.37813C108.602 7.84492 108.526 7.4082 108.379 7.06797C108.237 6.73027 107.945 6.56016 107.505 6.56016C106.672 6.56016 106.256 7.1873 106.256 8.43906V20.5352C106.256 21.2537 106.342 21.7945 106.52 22.1602C106.695 22.5258 107.013 22.7086 107.475 22.7086Z" fill="#727376"/>
<path d="M122.522 27.2688C120.706 27.2688 119.254 26.7 118.165 25.5625C117.081 24.425 116.54 22.866 116.54 20.8805V9.45469C116.54 6.9918 117.03 5.1332 118.013 3.87891C118.993 2.62715 120.534 2 122.634 2C124.462 2 125.934 2.50273 127.052 3.50313C128.169 4.50605 128.727 5.94824 128.727 7.82969V12.1055H123.791V8.43906C123.791 7.72813 123.703 7.23809 123.527 6.96641C123.357 6.69727 123.06 6.56016 122.634 6.56016C122.192 6.56016 121.887 6.71758 121.72 7.02734C121.557 7.33203 121.476 7.78398 121.476 8.37813V20.8297C121.476 21.4797 121.57 21.957 121.76 22.2617C121.956 22.5613 122.248 22.7086 122.634 22.7086C123.405 22.7086 123.791 22.084 123.791 20.8297V16.3508H128.788V21.0328C128.788 25.1918 126.699 27.2688 122.522 27.2688Z" fill="#727376"/>
</svg>
